<?xml version="1.0" standalone="no"?>
<!DOCTYPE svg PUBLIC "-//W3C//DTD SVG 1.1//EN" "http://www.w3.org/Graphics/SVG/1.1/DTD/svg11.dtd" >
<svg xmlns="http://www.w3.org/2000/svg" xmlns:xlink="http://www.w3.org/1999/xlink" version="1.1">
<metadata></metadata>
<defs>
<font id="chinese_rocksregular" horiz-adv-x="921" >
<font-face units-per-em="2048" ascent="1536" descent="-512" />
<missing-glyph horiz-adv-x="477" />
<glyph horiz-adv-x="0" />
<glyph horiz-adv-x="682" />
<glyph horiz-adv-x="477" />
<glyph unicode=" "  horiz-adv-x="477" />
<glyph unicode="&#x09;" horiz-adv-x="477" />
<glyph unicode="&#xa0;" horiz-adv-x="477" />
<glyph unicode="!" horiz-adv-x="477" d="M84 1276l14 45v143l11 4l8 25l-15 29h265l26 -60l-12 -20l2 -17l-8 -22v-313l24 -99l-12 -20l4 -56l-6 -20v-371l-18 -86h-179l-59 -8l-12 37v663l-15 19l-8 68l4 32l-4 23zM96 217l10 53l84 80l54 8l30 -2l50 -30l32 -50l21 -59v-27l-2 -53l-86 -74l-82 5l-49 26l-37 43 l-23 53z" />
<glyph unicode="&#x22;" horiz-adv-x="559" d="M84 1112v358l12 41h133v-430zM330 1079v408l16 22l129 2v-413l-102 -27h-25z" />
<glyph unicode="#" horiz-adv-x="1067" d="M61 666l21 133h174l35 219h-185l21 127h186l11 59l12 51l29 175l4 61l6 10h119l-43 -356h235l33 198l22 158h113l-4 -43l-23 -139l-18 -170h174l-20 -131h-164l-33 -219h176l-20 -127h-181v-10l-10 -29l-55 -342h-109l-6 86l49 295l-75 -6h-170l-25 -142l-16 -114 l-19 -107l-6 -12h-106l-13 43l53 323h-133zM389 799h242l37 219h-238z" />
<glyph unicode="$" horiz-adv-x="942" d="M59 1389l15 8l4 14h149l148 -8l-10 143h215v-143l208 18l11 -10l45 -78l37 -420l-217 19l-19 65l6 177l-41 4l-116 -7h-205l6 -143l27 -20l481 -252l86 -51v-13l-15 -8v-469h-67l-2 -18l-14 14h-86v4h-119v-156h-217v158h-256l-13 21l-28 409l16 8h74l149 23v-127l13 -21 l-15 -14v-76l8 -14h359l-25 168l-573 274v377l-12 82v45z" />
<glyph unicode="%" horiz-adv-x="933" d="M6 1047v399l66 37h307v-436h-373zM98 37l156 393l-2 23l20 22l-2 47l25 2l4 39l-6 10l16 11l-4 41l19 -4l77 235l25 16l-6 19l12 16v13l17 10l-3 16l9 8v21l18 18l27 80l-4 17l125 258l-7 24l19 4v31l16 6l13 66h200v-41l-28 -13v-67l-54 -117l-16 -61l-473 -1143h-193z M154 1268l10 -90h55v163h-65v-73zM498 184v250l241 17l111 22v-76l47 -338h-375l-16 23v55zM651 156l51 6v164l-51 4v-174z" />
<glyph unicode="&#x26;" horiz-adv-x="886" d="M76 629v235h262v256h240v-256h120l117 13v-236l-59 21h-109l-80 -9v-276h-243l16 129v131h-156l-26 -4l-45 -17l-23 13h-14z" />
<glyph unicode="'" horiz-adv-x="282" d="M47 1112v358l21 41h168v-430z" />
<glyph unicode="(" horiz-adv-x="444" d="M63 -162v1925h308l12 -24v-209l-109 8l-14 -10v-393l10 -56v-1126l133 16v-231h-110l-17 6h-200z" />
<glyph unicode=")" horiz-adv-x="516" d="M66 1538v231h110l19 -6h200l11 -94v-1919h-308l-10 21v209l107 -9l14 9v393l-8 57v1124z" />
<glyph unicode="*" horiz-adv-x="933" d="M70 1018l286 24l52 78l-17 27l33 14l61 158l129 -293l97 -8l16 -21l33 17l141 -13l-190 -204l-6 -43l24 -35l31 -207l-275 168l-258 -168l66 285l-88 96l-4 27l-23 2z" />
<glyph unicode="+" horiz-adv-x="886" d="M76 629v235h262v256h240v-256h120l117 13v-236l-59 21h-109l-80 -9v-276h-243l16 129v131h-156l-26 -4l-45 -17l-23 13h-14z" />
<glyph unicode="," horiz-adv-x="440" d="M90 246v20l31 47l43 41l49 27h47l47 -31l37 -51l21 -63v-31l-3 -25l-51 -219l-168 16z" />
<glyph unicode="-" horiz-adv-x="909" d="M84 629v235h635l104 13v-236l-59 21h-90l-170 -21h-318l-65 -25l-23 13h-14z" />
<glyph unicode="." horiz-adv-x="452" d="M90 160v45l31 49l45 43l51 27h47l49 -33l35 -49l21 -62v-84l-86 -65h-78l-49 28l-41 45z" />
<glyph unicode="/" horiz-adv-x="843" d="M47 37l156 393v23l16 20v49l27 2l2 39l-6 10l18 11l-6 8v33l18 -4l78 235l25 16l-6 19l12 16v13l16 10l-2 16l8 8v21l19 18l24 94l125 261l-6 24l17 4v31l22 10l6 62l201 8v-49l-29 -13v-65l-69 -180l-471 -1143h-195z" />
<glyph unicode="0" horiz-adv-x="931" d="M74 1290v80l71 82l25 41v18h532l136 -159v-981l28 -211l-123 -160h-524l-29 74l-4 -19l-55 58l-29 22v670zM268 1286l8 -61v-207l9 -187v-524l18 -71l-2 -9h377l-23 410l-12 25l-10 182v450h-215z" />
<glyph unicode="1" horiz-adv-x="600" d="M88 987v375l133 133l6 37l52 10h94l112 -10v-309l17 -2v-29l-19 -10l9 -80l-9 -6l25 -47l-19 -7l13 -65l-13 -49v-140l13 -213v-405l-13 -150l-110 9h-80l-25 -9v818l-18 20l12 19l-18 43h8l10 10l-18 8v35l6 31l-10 51h-8l-82 -45l-35 2z" />
<glyph unicode="2" horiz-adv-x="858" d="M37 1370l12 8l82 140l92 -11h176l37 11l170 -11l23 9l16 -5l55 -51l60 -65v-236l-8 -26v-19l24 -12l-10 -27v-282l10 -224l-67 -49l-162 -102l-17 -2l-41 -41l-100 -76l4 -18l10 -9h379v-172l27 -51h-721v264l258 203l211 232l-16 213v274l-39 37h-183l-30 -15l-8 -106 v-119l26 -203v-45l-10 -41l8 -22v-119h-35l-88 -14l-110 -29l-27 580v180z" />
<glyph unicode="3" horiz-adv-x="913" d="M61 1366l95 135h526l31 -35l82 -69l16 -2l-8 -142l26 -350l-118 -76l39 -61l79 -47v-191l17 -32v-93l-8 -34l4 -17l-4 -43l10 -76v-45l-33 -63l-74 -96l-61 12h-246l-102 -12h-94l-129 123v397l215 -25l-11 -96l11 -29v-77l-7 -15v-24l33 -58h135l142 8v244l-19 178 l-41 25h-190l-88 -25v254l57 -18h60l178 18l24 31l-26 330l-23 24h-252l-4 -16l-20 -25l16 -18v-170l8 -43h-74l-153 -43v334z" />
<glyph unicode="4" horiz-adv-x="878" d="M63 231v316l379 905h224l-9 -22v-875l41 -115l136 -10v-190h-144l-8 -179l10 -34l-53 -7h-156v31l13 17v149l-9 14h-424zM256 428h217v338l-16 16l6 49l-6 46l6 20v74z" />
<glyph unicode="5" horiz-adv-x="931" d="M68 1487l36 -14l21 24l82 -4l26 14h43l35 -10l13 6h168l16 -14l74 18h243l19 -12v-35l-17 -26v-179l-43 9l-145 6l-121 -6h-172l-37 -17v-43l10 -71l23 -27h39l10 16l12 -6h265l90 23v-35l102 -86l-8 -23v-45l8 -61l-4 -84l-20 -21l6 -6l28 2v-592l-104 -174h-500 l-127 138l-20 200l-8 178l10 113l108 -8h78l41 18v-366l35 -37h190l39 14l25 19v24l-23 17v553l-32 32h-236l-18 -10l-209 16l-15 -6z" />
<glyph unicode="6" horiz-adv-x="956" d="M86 344v207h14l-8 35v809l19 8l20 20l14 27h19l6 6v19l16 2l43 63l195 -14h301l8 -23l125 -96v-47l16 -57v-56l-16 -16l25 -66v-204l-228 30v266l13 39l-47 21h-252l-76 -8v-27l14 -12l-6 -29v-106l16 -271h504l-2 -47l76 -57l-12 -621l-11 -10l-16 2l-88 -137l-250 18 h-262l-23 -12h-38l-25 59v19l-49 16l-19 41v180zM326 221h358l-29 334l11 63l-13 17h-327v-414z" />
<glyph unicode="7" horiz-adv-x="962" d="M59 1546h840v-10l-25 -143v-25l-24 -49l4 -43l-10 -6v-66l-49 -315l-33 -96l-4 -45l6 -13v-37l-25 -24v-53l-32 -113v-41l-41 -129l20 -31l-18 -4l-19 -41l-37 -199l4 -53h-206v66l26 123l4 53l88 534l74 385l41 160l-256 -37h-252l-69 6v181z" />
<glyph unicode="8" horiz-adv-x="929" d="M72 891v481l123 160h524l117 -135v-486l16 -6v-63l-150 -84l33 -31l117 -20l12 -301v-228l-6 -20l-90 -117v-18h-532l-136 157v543l123 72l-104 69zM279 651l22 -86v-327h217l135 12l17 -4l-19 141v264h-372zM283 897l14 -20l20 12h320v416h-354v-408z" />
<glyph unicode="9" horiz-adv-x="956" d="M80 1403l129 141l31 2l82 -10h411l35 -4l86 -111l6 -110l-4 -25l29 -297v-211l-6 -69l8 -17l-6 -24v-160l-13 -72l15 -74v-165l4 -21l-99 -143l-12 -8v-21l-117 10h-247l-160 -8l-133 105v229l-21 188l217 9l21 -158v-45l-12 -78l10 -16h338l16 10l-14 53l-23 346l-10 10 l-78 -6h-282l-183 92v181l-6 12v418zM305 1176l19 -15l-11 -51v-225h27l35 10h291l-11 78l-14 244v102h-121l-164 -8l-49 -13l10 -71z" />
<glyph unicode=":" horiz-adv-x="411" d="M82 154v45l31 49l45 43l49 26h49l49 -32l35 -52l20 -61v-80l-86 -67h-79l-50 28l-39 47zM82 645v45l31 49l45 43l49 27h49l49 -33l35 -51l20 -61v-80l-86 -68h-79l-50 29l-39 47z" />
<glyph unicode=";" horiz-adv-x="415" d="M86 655v45l31 50l45 43l49 26h47l49 -28l37 -50l21 -61v-33l-3 -55l-83 -66h-78l-49 29l-41 45zM88 209v20l31 47l45 41l49 27h45l47 -33l35 -49l22 -63v-31l-2 -25l-51 -219l-168 17z" />
<glyph unicode="&#x3c;" horiz-adv-x="872" d="M72 602v359l39 4l77 30l37 25l6 -12l263 108l12 -2l135 53l29 -4l96 45l57 13v-199l-626 -244l252 -88l331 -143h39l8 -240l-399 123l-8 12l-129 70h-35z" />
<glyph unicode="=" horiz-adv-x="872" d="M78 823v236h491l248 10v-246h-739zM88 465v248h743v-236h-333l-375 -24z" />
<glyph unicode="&#x3e;" horiz-adv-x="872" d="M72 1221l399 -123l8 -13l129 -69h35l184 -90v-359l-39 -4l-77 -31l-37 -24l-6 12l-262 -108l-13 2l-135 -54l-29 5l-96 -46l-57 -12v199l626 244l-251 88l-332 143h-39z" />
<glyph unicode="?" horiz-adv-x="819" d="M31 1298v72l92 146h498l90 -64l30 -57v-181l25 -30v-451l-197 -88l-14 -29l-176 -137v-59l8 -76l-258 -16l-10 176l10 39l416 362l-8 53v256l-5 43l-40 15h-181l-32 -15l-11 -141l17 -43l10 -94l-117 -12l-117 -31zM129 147v46l31 49l45 43l51 26h47l49 -32l35 -50 l21 -61v-84l-86 -66h-78l-49 29l-41 45z" />
<glyph unicode="@" horiz-adv-x="1437" d="M109 995l22 68l-16 8l18 90l-18 29l14 12v344h1167l74 -28v-977l10 -82l-67 22h-815v649h510v-403h127v485l6 31v98h-809l28 -415l-12 -25v-446l-10 -17l16 -16v-96l-6 -62h672v-215h-862l-8 27l-29 522l10 70l-12 55l20 238zM647 924l17 -222h167v234l-86 -12h-98z" />
<glyph unicode="A" horiz-adv-x="925" d="M45 33l78 645l90 477l20 64v86l15 16v59l20 39l13 94l284 -12l8 -78l17 -53l20 -41l11 -8v-84l24 -41l-4 -45l14 2l43 -211l19 -24l26 -158l27 -98l-6 -17l41 -153l12 -74l4 -72l21 -39v-10l-11 -16l9 -23l12 -131l8 -111l-8 -8h-45l-109 17l-26 -5l-43 46l4 77l-17 11 v16l11 10l-37 60l10 30l-65 -16l-52 4l-151 -6l-21 27l-22 -60l-33 -133l-8 -72zM348 496l43 8l164 10l-96 616h-25l-53 -485h18v-12l-32 -72z" />
<glyph unicode="B" horiz-adv-x="962" d="M55 989l6 25v133l19 164v178l-4 43l151 -10h492v-650l151 7l11 -13v-835h-789v925zM299 895l18 -6l-2 -27h189v420l-12 25h-181v-291l-6 -4v-25l12 -26l-12 -19l12 -29zM309 240l45 -7h181l108 7l-14 182v231l-178 -16h-136l-6 -37v-360z" />
<glyph unicode="C" horiz-adv-x="907" d="M57 1190l15 12v344h673l37 6l37 -34l-12 -48v-559l-53 9l-37 18l-19 -2l-10 16l-37 -10h-22l-43 12v260l8 35v92h-320v-108l29 -299l-12 -29v-456l-10 -11l16 -16l-12 -35v-35l12 -6l-6 -82l67 -10h263v356l206 54v-613l-14 -14l-182 16h-445l-86 -4l-12 88l-16 201v172 l-9 41l11 106l-13 37v197l21 70v200z" />
<glyph unicode="D" horiz-adv-x="1001" d="M66 1300l8 23v119l-8 108l694 -37l37 -59l106 -133v-1137l-16 -14l-64 -84l-45 -72l-164 9h-536l12 8v119l-12 104l14 -2l25 8l28 -16l70 4v1012l-10 45l-125 -11zM426 1307l14 -129v-947h131l117 9l-29 358l-12 84l19 6l-23 205v145l21 269h-238z" />
<glyph unicode="E" horiz-adv-x="806" d="M33 1509h698l43 -16v-217l-33 14h-393l-84 -4l-12 -12v-144l10 -77v-142l17 -14h204l133 14l5 -88l-9 -8l11 -145h-371l24 -133v-168l-6 -66l9 -88h509v-213l-79 4l-31 -6l-19 12l-79 -12h-512v92l-17 72v1337z" />
<glyph unicode="F" horiz-adv-x="788" d="M27 227v930l18 361h709v-258h-498v-347l41 -14h94l207 16v-110l14 -150l-16 -37h-346v-172l18 -63l-26 -354h-21l-78 20l-106 -8z" />
<glyph unicode="G" horiz-adv-x="962" d="M59 1214v277l13 35l88 -8h688l14 -23l-8 -72v-65l10 -51l-8 -31l4 -27v2l25 -231h-238v250l-18 12h-344l-2 -14l-15 -21l21 -10v-547l4 -10l10 -2l-18 -41l16 -12l-10 -144l18 -12l-16 -45l4 -92l12 -6l-2 -11l-10 -10l10 -35l-4 -16l367 22l-4 -8h14l4 41l-25 379h-235 l-16 225l20 -10h354l109 10v-272l16 -190v-428l-20 -7h-213l-27 11l-98 -9h-109l-102 15h-72l-12 -13l-31 7h-119l-14 202v478z" />
<glyph unicode="H" horiz-adv-x="989" d="M74 100l24 21v57l-18 12l24 50l-18 24l2 33l16 72l-16 55v553l10 6l-8 16v154l10 64v217l-14 77l12 13h262l46 -574l-13 -6l2 -35l-8 -6l16 -35l142 9l94 16l-8 35v397l-10 199h249l15 -56v-86l-13 -26l9 -62l28 -123l-10 -4l-8 -12l22 -166l9 -12l-2 -14l-11 -13l19 -73 v-349l-4 -20l-11 -10l7 -6l8 -19l-19 -35v-428h-239l-43 107v471l-195 -13h-59l-4 -4l6 -36v-17l18 -8l-18 -18v-15l12 -8l-10 -18l-6 -148l10 -145l-6 -17v-116l-13 -15h-231l-41 53z" />
<glyph unicode="I" horiz-adv-x="456" d="M78 838l12 20l-6 86l6 135l6 8l-12 9l4 43l12 22l-16 21l12 39v227l15 76h170l65 6l29 -246v-668l6 -145l-4 -76l14 -8l-16 -59v-250l-13 2v-76l9 -6h-260l-27 98l12 29v133l-12 356l8 17v186z" />
<glyph unicode="J" horiz-adv-x="1050" d="M70 354l10 52v196l12 39h53l205 -20l15 -21v-35l-19 -14l12 -35v-127l-24 -43v-76l6 -8h176l158 -18v73l6 29l-8 10l4 11v446l18 8v56l11 100v233l-31 277h276v-694l6 -5l-10 -106v-408l4 -10l-4 -2l-12 -176l-14 -66h-820l2 7l-14 45v112l-8 125z" />
<glyph unicode="K" horiz-adv-x="884" d="M66 45l26 508v561l10 19v122l-16 238h229v-510l273 502l98 4l84 -6l57 -8l-284 -586l8 -68l27 -125l200 -669h-198l-187 653l-86 -158v-477h-241z" />
<glyph unicode="L" horiz-adv-x="862" d="M18 1507h234l-12 -106v-68l32 -2v-491l17 -19v-393l-8 -129l-11 -47l15 -10l2 -13l303 13l4 18l12 -2l10 -10h246v-248h-825v1241l-10 221z" />
<glyph unicode="M" horiz-adv-x="925" d="M70 113v1312l30 78l17 13l141 6l168 -371l33 -123v14l16 39l53 254l23 23l55 158h199l41 -340h6v-11l-10 -10l12 -41v-201l12 -22l-14 -35l8 -252l-6 -8v-76l-6 -39l12 -16v-25l-8 2l-4 -45l8 -8l-12 -110v-123l-15 -21v-125l-12 -26h-158l-34 12l-23 14v563l16 246 l-45 -147l-16 -94l-31 -89l-10 -104l-33 -16l-30 8l-29 117l-131 362l16 -328v-327l-20 -187l-8 -18h-175z" />
<glyph unicode="N" horiz-adv-x="993" d="M74 1012v286l24 228l52 -10h104l35 12l153 -340l13 -8l-4 -9l22 -49l2 -24l70 -146l112 -325l11 -11l-37 857l18 49h215l25 -256v-60l16 -153l8 -9v-20l-12 -6l21 -393l8 -9l-10 -30l6 -6l-13 -207l15 -23l-15 -6v-22l17 -9l-17 -20l-10 -41l-8 -234h-233l-13 25l6 18 l-75 158l-105 244l-113 293l-43 137v-143l13 -29l-10 -59l16 -123l-2 -17l6 -14l-16 -465l-35 -10h-80l-10 10l-17 -6h-45l-30 6z" />
<glyph unicode="O" d="M72 1528h712l35 -19v-301l21 -28l-2 -25l-17 -47l13 -10l-9 -97l17 -10l-8 -110l12 -23v-31l-19 -14l25 -47l-12 -10l6 -25l-6 -18v-49l6 -21l-8 -12l6 -25l-4 -18l12 -8l-8 -23v-145l14 -9l-12 -8l2 -35l-6 -88l-8 -16l10 -8l-17 -8l7 -23l18 -33l-18 -16l12 -4l-10 -58 l8 -116l-13 2l-16 16l-10 -18h-12l-11 16l-10 -10l-16 6h-92l-25 10v-10h-96l-99 10l-6 -12h-166l-133 12l-6 6l-10 -10h-17l-30 402v628l12 66v43l-12 12l14 37v14l-14 9l12 14zM287 1120l12 -41v-268l12 -14l-4 -9l-14 -8l31 -18l-35 -29l22 -135l6 -188l-18 -11l18 -22 v-45l-10 -94l6 -13l181 13h133v104l-4 25l12 8v35l-6 116l-15 29v436l-16 6l14 23v211l6 61h-329l8 -123l-8 -16l10 -4v-10z" />
<glyph unicode="P" horiz-adv-x="899" d="M66 1485l4 24l114 -6l33 4l14 -8l150 6l14 -8h314l139 -6v-14l20 -17l-12 -22v-508h-592v-514l25 -404l-21 -12l-43 12l-10 -2l-10 -10l-37 12h-53l-37 -10v1460zM254 1290l18 -76v-59h387v135h-405z" />
<glyph unicode="Q" horiz-adv-x="942" d="M49 1528h789v-926l24 -43l-10 -110v-424l-164 12h-104v-80l-215 -16v96h-289v956zM287 274l14 -24h68v340l206 -17v-323h68l-12 168v155l-13 23l13 18l-13 29l13 21l-19 6v647h-325v-1043z" />
<glyph unicode="R" horiz-adv-x="958" d="M57 700l11 56v757h780v-49l26 -114v-56l-6 -14l35 -309l-6 -10l-14 -9l-127 9h-54l-14 -15l49 -235l86 -336l21 -109l-6 -8l14 -14l14 -84l-4 -29l19 -20l16 -113h-209l-94 274l-29 101l-86 405l-30 172h-158l33 -446v-168l6 -139l-21 -187l-200 -8l-19 18l-2 35v181 l-18 28l14 21v266l-23 14l11 10v105zM86 55v4l2 -2zM283 1153h381l-5 59l5 74h-381l12 -61v-43z" />
<glyph unicode="S" horiz-adv-x="960" d="M78 868v641h323l11 9l34 -5l9 -8l65 13l10 -13l64 17l33 -2l6 -11l155 13l11 -13l47 -14l8 -90l-12 -6l24 -35v-57l-8 -15l14 -26v-353l-206 19l-19 65v275l-37 4l-96 -6h-225v-80l12 -21l-8 -22v-49l8 -8l-6 -19v-43l27 -20l473 -246v-17l92 -40v-15l-10 -6l12 -293 l-12 -59l14 -8l2 -23l6 -4l-29 -135v-49l17 -27l-8 -70l-154 9l-20 -5h-592l-15 43l-14 130v438l8 12l86 4h133v-96l15 -21l-13 -10v-186l-6 -17l10 -88h359l-23 365z" />
<glyph unicode="T" horiz-adv-x="950" d="M45 1251v254h854v-47l-6 -18l10 -21v-168h-311v-1271l-162 14l-37 -17l-39 3v432l-4 18l8 12l-16 183l-8 10l20 49v567h-309z" />
<glyph unicode="U" horiz-adv-x="974" d="M68 240l24 172v1085h203v-674l24 -303l-8 -10l-16 -291h311l19 25v1253h256l-15 -94v-1397h-624l-166 -12v221z" />
<glyph unicode="V" horiz-adv-x="937" d="M59 1536h213v-104l29 -89l64 -407l4 -98l30 -52l78 -522l215 1262h162l6 -113l-43 -186l6 -68l-45 -258v-37l-88 -504l-10 -22l12 -14l-22 -76l-27 -156l-4 -78h-334l-63 361v76l-64 264l-10 16z" />
<glyph unicode="W" horiz-adv-x="960" d="M63 1536h199l-14 -20v-89l16 -41l-6 -14l18 -90l43 -405l156 630l66 -282l69 -369l11 -14l8 -2l69 686h162l12 -27l-12 -69l4 -17v-254h-8v-209l-22 -55l-43 -457l-23 -112l12 -2l-51 -150l6 -22l-8 -138h-162l-26 19l2 45l-31 483l-25 -2l-82 -532l-10 -7h-164z" />
<glyph unicode="X" horiz-adv-x="923" d="M35 27l315 784l-315 719l229 -25l193 -469l57 160l25 88l59 143l27 86h227l-305 -718l14 -9l8 2l326 -747l-92 -18h-84l-27 10l-8 37l-154 338l-20 4l-16 10l2 29l-33 2l6 18l-12 21l-211 -465h-211z" />
<glyph unicode="Y" horiz-adv-x="849" d="M51 1548h238l135 -461l127 443h240l-164 -379l-76 -242l-8 -75v-392l8 -36l-25 -19l6 -18v-328h-233v795l-12 82l-43 145z" />
<glyph unicode="Z" horiz-adv-x="870" d="M47 1509h758l6 -39v-155l-74 -92l-6 -43l-440 -949h514v-231h-111l-18 12l-96 -6h-496l-14 209l116 215l2 29l48 102l36 60l119 251l-6 19l31 39l4 45l135 301h-485z" />
<glyph unicode="[" horiz-adv-x="444" d="M63 -162v1925h308l12 -24v-209l-109 8l-14 -10v-393l10 -56v-1126l133 16v-231h-110l-17 6h-200z" />
<glyph unicode="\" horiz-adv-x="792" d="M23 1454v33l200 -8l4 -37l13 -31l12 -4v-31l16 -4l-6 -24l125 -265l2 -32l121 -279l51 -151l19 4v-33l-7 -8l19 -11l-6 -10l4 -39l24 -2l-2 -45l19 -12v-37l155 -391h-194l-471 1143v16z" />
<glyph unicode="]" horiz-adv-x="516" d="M66 1538v231h110l19 -6h200l11 -94v-1919h-308l-10 21v209l107 -9l14 9v393l-8 57v1124z" />
<glyph unicode="^" horiz-adv-x="911" d="M117 760l49 90l72 147l57 131h338l63 -135l35 -35l90 -249h-278l-68 280l-22 -18l-60 -135l-28 -127h-242z" />
<glyph unicode="_" horiz-adv-x="739" d="M0 -47v223h465l231 10l43 -10v-223l-59 20h-90l-170 -20h-336l-49 -12l-23 12h-12z" />
<glyph unicode="`" horiz-adv-x="413" d="M41 1808l192 21l140 -205h-142l-41 10l-63 64z" />
<glyph unicode="a" horiz-adv-x="903" d="M53 -2l150 1102l10 4l25 139l38 133l11 119h196l84 6l15 -45l-2 -45l12 -10l43 -152l53 -235l113 -604l67 -422h-172l-67 282h-338l-47 -272h-191zM346 512h240l-142 643v-145z" />
<glyph unicode="b" horiz-adv-x="888" d="M59 547v229l15 213v158l-13 12v369h578l35 -19v-301l20 -28l-2 -25l-16 -47l10 -10l-6 -97l16 -10l-8 -22v-95h141l-16 -61l16 -39v-166l-4 -18l11 -10l-17 -113l12 -289l-10 -61l8 -127l-30 10l-41 -4l-29 12h-104v-6h-99l-96 10l-6 -12h-238l-63 12l-6 6l-11 -10h-14 l-16 205zM272 1120l11 -35v-221h192v428h-201l7 -123l-9 -16l13 -4v-10zM285 399l16 -22l-8 -121l4 -31l180 13h135v110l-6 19l12 8v96l-18 64v129l-63 -29h-246l6 -82l-12 -33l8 -18l10 -6l-6 -68l-8 -31z" />
<glyph unicode="c" horiz-adv-x="1005" d="M51 969l12 18l-8 27l8 2v471h857v-510l14 -35l-14 -8v-72l-50 -4l-6 8l-16 -24l-41 16l-25 -22l-4 14l-123 -31v357l-4 43l6 34l-28 -6l-336 -16l18 -133v-137l13 -78v-62l10 -8v-569l160 18h182l2 6l-10 15l12 63l-18 33v127l-13 29l13 -3l6 19l-17 4v29l15 39h133 l24 22h8l17 -12l26 8h54l6 -248l12 -39l-12 -61v-37h-12l-7 -6l17 -74l-10 -16v-56l6 -32l-13 -62l-118 17l-29 -13h-674l-28 248l16 12v50l-8 63v295l-17 106l6 5v94z" />
<glyph unicode="d" horiz-adv-x="1017" d="M55 223l13 13v12l135 -10l10 16l-4 55l4 35l-6 21v65l12 43l-26 16v31l32 33l-18 18v406l-19 57l17 90l8 111l12 49h-149l6 31v76l-6 41l16 18l-8 14l-6 60h549l149 14l144 -156l18 -297l12 -112l-12 -8l12 -19l-14 -51v-117l20 -53v-12l-14 -8v-295l-4 -41l12 -19 l-10 -55l-6 -78l10 -16v-70l-76 -92l-84 -53h-706l-6 20l-13 117zM451 1268l24 -103v-336l-6 -12l10 -143v-438h211l4 20v20l-14 191l12 37l-30 123v30l6 19l-4 2l-15 59l13 8l-13 123v400h-198z" />
<glyph unicode="e" horiz-adv-x="825" d="M31 1282l16 21v227h713l8 -25v-96l-6 -20l24 -107h-143l-352 -18l-17 -11l-2 -36l-22 -13l24 -262l127 8l74 -8l137 -29v-84l-14 -57l14 -29v-43l-338 -18l-8 -20l-10 -72v-58l10 -20v-178l25 -12h334l49 14l147 24l-24 -202l6 -90h-713l-33 673v498z" />
<glyph unicode="f" horiz-adv-x="784" d="M27 236v921l18 361h707v-258h-498v-347l61 -20h220l61 6l-18 -49v-43l30 -137v-27l-12 -25h-346l-14 -223v-334l-93 -12l-108 8z" />
<glyph unicode="g" horiz-adv-x="931" d="M86 16v1500h760v-68l-31 -365h-217v205h-262l-27 -53v-932l19 -51l34 -8h115l17 -27l45 27l14 -8h33l12 6v383h-170v272h399v-881h-741z" />
<glyph unicode="h" horiz-adv-x="1011" d="M74 1034v531h256l39 -619h282l19 27v51l-23 135v336l-8 78l84 -4l166 14l12 -29l-4 -51l23 -235l24 -535v-407l-10 -250l14 -33l4 -33h-313l23 31l10 45l-41 590h-246l-25 -19l27 -661l-37 14h-219z" />
<glyph unicode="i" horiz-adv-x="446" d="M63 1491l39 20h246v-1312l-18 -217l-248 32v1471z" />
<glyph unicode="j" horiz-adv-x="899" d="M78 84v606l92 -26l18 4l13 -19l22 8l78 -8v-260l-6 -31v-96h319l-30 414l12 24v449l10 14l-16 17v372h196l25 -387l12 -125l-8 -104l10 -57l-18 -238l29 -35l-23 -67l16 -9l-16 -90l16 -28l-14 -13v-342h-674z" />
<glyph unicode="k" horiz-adv-x="843" d="M57 281l19 20l-8 100v1100h221v-592l10 -41l100 260h11l149 363h232l-259 -557l261 -866l-13 -41h-182l-201 616l-108 -201v-411h-203l-4 92l-14 123z" />
<glyph unicode="l" horiz-adv-x="772" d="M25 1520h237l25 -492v-420l-15 -325l17 -15l483 43v-284h-731v1468z" />
<glyph unicode="m" d="M74 1499l39 31h188l152 -416l157 432h211l-26 -86l-9 -43l37 -41l-10 -100l16 -256l-6 -33l17 -24l-17 -45l8 -101v-110l-18 -62l25 -289v-338l-21 -18h-196l-17 29v745l-100 -346l-31 -4l-125 317l-26 56l26 -238v-551h-221l-29 125v883z" />
<glyph unicode="n" horiz-adv-x="952" d="M63 541l11 41v872l-11 62h158l10 10l25 -10l47 10l41 -162l29 -29l63 -166l23 -12l-10 -12l34 -70l-6 -12l168 -422l17 -23v107l-35 356l10 13v194l-16 10l16 15v203h215v-498l16 -17l-12 -30l16 -25v-358l2 -58l-6 -8v-315l-16 -6v-115l8 -59h-180l-371 938v-932h-200 l-23 129l12 12z" />
<glyph unicode="o" horiz-adv-x="942" d="M66 1118v168l10 25v221l225 -10h547v-961l29 -530h-787v952zM291 1307l22 -346l-12 -19l12 -29l-16 -18l16 -6v-649h326v663l-21 379l-14 25h-313z" />
<glyph unicode="p" horiz-adv-x="878" d="M55 256l11 10v617l-11 200l13 369l-11 41h777v-637h-504v-813l-215 8l-49 -6v121zM307 1110l273 -27l28 37v144h-301l4 -72z" />
<glyph unicode="q" horiz-adv-x="905" d="M59 1528h713l35 -19v-301l20 -28l-2 -25l-16 -47l12 -10l-6 -99l14 -8l-8 -110l13 -23v-31l-19 -14l16 -256v-145l15 -9l-12 -8l2 -35l-7 -88l-8 -16l10 -8l-16 -8l6 -23l19 -33l-19 -16l13 -4l-9 -51v-90l-18 -25h-156l-24 14v-10h-88v-82l-185 17v69h-213l-20 12 l-10 -10h-17l-31 402v628l13 66v43l-13 12l15 37v14l-15 9l13 14zM276 733l23 -135v-45l-12 -33l8 -18l10 -6v-39l-10 -11h-6l16 -36l-10 -11h-8l18 -22v-45l-10 -94l6 -13h53v312l185 -17l16 -284l43 4l20 10v100l-8 17l13 8v35l-7 116l-14 29v436l-16 6l14 23v211l6 61 h-330l9 -123l-9 -16l11 -4v-10l-11 -19l11 -45v-229l12 -49l-4 -9l-14 -8l30 -18z" />
<glyph unicode="r" horiz-adv-x="950" d="M76 1096l8 186v219l4 31h758l18 -25l-6 -22v-279l12 -8l-8 -35v-209l-182 -14l25 -168l8 -6l82 -381l-7 -25l70 -342h-188l-219 928l-29 -6h-66l-32 6l-23 -10l18 -428l-12 -29l12 -45v-22l-6 -19l13 -69l-19 -13l19 -26l-21 -76v-125l6 -55h-217l6 65v684zM297 1198 l342 -8l4 57l-4 47h-342v-96z" />
<glyph unicode="s" horiz-adv-x="937" d="M57 1217v305h555l242 8v-518l-16 -6l-119 6l-62 -6l-12 12v295l-27 16l-61 12h-35l-16 -18h-227v-104l12 -138l432 -282l156 -92v-287l2 -8v-398h-799l-12 21v22l10 39v559l8 9l68 -9h137v-419l14 -13h117l14 13l6 -9h220l-13 72v268l-358 226l-193 139h-14l-14 39v76z " />
<glyph unicode="t" horiz-adv-x="940" d="M45 1536v12l8 8l191 -20h252l24 4l58 -8l92 4l14 -8l6 10l17 6l30 -2l25 -14h112l11 -41v-174l10 -21l-27 -26l-96 20h-117l-37 -6v-397l9 -72v-502l6 -30v-115l12 -19l-12 -4v-18l-10 -27v-49l10 -31l-25 -20h-198l-13 18v1256h-344l8 43v188z" />
<glyph unicode="u" horiz-adv-x="905" d="M61 1528l242 -19v-712l-18 -17l28 -18l-10 -29v-508h315l-6 142v1149h133l64 -7v-639l27 -43l-17 -14l23 -47l-13 -10v-242l7 -119l-11 -139l11 -8l-17 -8l17 -250l-29 22h-371l-6 6h-307l-55 -10v1211l12 14z" />
<glyph unicode="v" horiz-adv-x="944" d="M57 1509h176l218 -1261l77 508l127 667v80l213 17l-108 -805l-12 -17l-62 -260v-67l-80 -373h-317l-4 78l-27 155l-22 76l10 15l-96 526l2 22l-48 273l5 59l-41 195z" />
<glyph unicode="w" horiz-adv-x="987" d="M86 1565h45l10 -19h117l51 -20l-4 -80l68 -461h6l22 191l54 278l32 111h19l16 -11v-51l17 -123l82 -350h8l10 180v176l12 66l-10 82l4 16h225l21 -6l10 -10l-29 -211l-28 -270v-217l-15 -271l-38 -381v-37l18 -116h-82l-129 18v33l8 8l-114 498l-11 2l-53 -549l-137 6 l-35 -8l-37 297l-86 594l-16 39z" />
<glyph unicode="x" horiz-adv-x="909" d="M27 23l338 733l-3 20l-65 154l-162 448l-82 178l223 -26v-29l-8 -14l205 -459l184 510h76l23 -6l129 6l-56 -82l-260 -684l170 -461l127 -288h-204l-193 444l-12 4l-11 37l-178 -404v-55l-10 -26h-231z" />
<glyph unicode="y" horiz-adv-x="819" d="M53 1546h240l127 -491l39 186l96 299h238l-97 -240l-114 -323l-47 -234v-712h-242v338l24 18l-24 19l10 36v402l-162 483z" />
<glyph unicode="z" horiz-adv-x="829" d="M35 59v166l61 84l17 51l438 949h-512v231h111l18 -12l96 6h508v-209l-115 -213l-2 -31l-49 -104l-35 -57l-120 -250l6 -21l-29 -39l-10 -59l-131 -287h485l23 -233h-756z" />
<glyph unicode="{" horiz-adv-x="444" d="M63 -162v1925h308l12 -24v-209l-109 8l-14 -10v-393l10 -56v-1126l133 16v-231h-110l-17 6h-200z" />
<glyph unicode="|" horiz-adv-x="620" d="M207 -160v1852l18 98h119l41 8l14 -117l17 -258v-1265l20 -8l-10 -29l-12 -109v-184l-11 -8l-2 -47l2 -41h-178l-14 65z" />
<glyph unicode="}" horiz-adv-x="516" d="M66 1538v231h110l19 -6h200l11 -94v-1919h-308l-10 21v209l107 -9l14 9v393l-8 57v1124z" />
<glyph unicode="~" horiz-adv-x="956" d="M59 596l11 131l14 31l6 112l49 33h336l60 -84l36 -14l66 -80l16 186h215l15 -141l-29 -22l-12 -146h-393l-154 195l-35 -183z" />
<glyph unicode="&#xa1;" horiz-adv-x="477" d="M92 342l14 6l-4 53l25 557l10 48h236l22 -66v-213l4 -29l-6 -55l13 -12l-9 -10l-12 -209v-238l14 -20l-26 -58h-262l12 2v47l-14 9v149zM104 1196v47l25 55l39 45l49 29h68l55 -26l31 -37l12 -43v-15l10 -30l-33 -60l-36 -49l-48 -31h-47l-51 27l-43 41z" />
<glyph unicode="&#xa2;" horiz-adv-x="907" d="M57 1190l15 12v344h385v39l-11 6l19 23h115v-68h225l-17 -205h-208v-1087h215l10 -201h-232v-98l-116 37v61h-271l-86 -4l-12 88l-16 201v172l-9 41l11 106l-13 37v197l21 70v200zM274 1233l29 -299l-12 -29v-456l-10 -11l16 -16l-12 -35v-35l12 -6l-6 -82l67 -10h107 v1087h-191v-108z" />
<glyph unicode="&#xa3;" horiz-adv-x="1138" d="M45 578v235h119v432l14 176l15 66h819l-2 -6l14 -45v-113l8 -125l10 -45l-10 -51v-197l-12 -39h-53l-205 21l-14 20v35l18 14l-12 35v127l24 43v76l-6 8h-176l-158 19v-74l-6 -29l8 -10l-4 -10v-328h101l247 10v-245h-372v-320h643v-235h-574l-375 -25l-34 12v248h90v320 h-117z" />
<glyph unicode="&#xa4;" d="M43 1110l119 96l86 -96h438l80 90l-4 12l24 -8l103 -112l-139 -156v-105l16 -24l-2 -23l-2 -2h6l4 -84l-4 -75l-8 -15l8 -6l-12 -8l4 -19l14 -30l-8 -10l117 -125l10 2l-6 -29l-101 -113l-104 115h-55l-21 10v-10h-76l-77 10l-4 -12h-132l-63 6l-8 -12l-113 -109l-86 131 l127 142l-12 200l10 90l-10 9l8 14l-4 104zM330 782h22l2 -41l-16 -6l16 -20v-41l-10 -82l6 -12l142 12h106v92l-4 21l8 8v20h-18v119l6 51h-260l6 -106z" />
<glyph unicode="&#xa5;" horiz-adv-x="849" d="M39 557v158h260v121l-12 82l-43 145l-193 485h238l135 -461l127 443h240l-164 -379l-76 -242l-8 -75v-119h266v-158h-266v-74h282v-155h-293v-287h-233v278h-250v164h250v74h-260z" />
<glyph unicode="&#xa6;" horiz-adv-x="620" d="M207 -160v692h209v-374l20 -8l-10 -29l-12 -109v-184l-11 -8l-2 -47l2 -41h-178l-14 65zM207 991v701l18 98h119l41 8l14 -117l17 -258v-432h-209z" />
<glyph unicode="&#xa7;" horiz-adv-x="937" d="M57 688v256h183l-140 84h-14l-14 33v63l-15 142v241l813 23v-436l-16 -4l-123 4l-61 -4l-13 10v248l-28 14l-62 10h-35l-18 -16h-231v-219l612 -299v-240l4 -264l-162 -8l158 -70v-238l2 -6v-334h-815l-12 17v20l10 33v469l8 6l70 -6h139v-352l14 -10h121l14 10l7 -8h223 l-12 61v225l-367 189l-197 117h-14l-14 32v64zM283 690l12 -115l260 -139h121l-12 60v225l-138 70l-12 -13h-231v-88z" />
<glyph unicode="&#xa8;" horiz-adv-x="655" d="M41 1612v194h178l8 -30l17 -164h-203zM434 1604v211h180v-211l-36 10z" />
<glyph unicode="&#xa9;" horiz-adv-x="1492" d="M72 1528h1286l35 -19v-301l20 -28l-2 -25l-16 -47l12 -10l-8 -97l16 -10l4 -1001l-401 22l-6 -12h-740l-166 8l-30 402v628l12 66v43l-12 12l14 37v14l-14 9l12 14zM240 1159l12 -45v-754l20 -24v-51l-10 -105l6 -12h983v129l-4 27l13 10v37l-7 131l-16 30v484l-18 6 l16 27v233l6 68h-999l8 -138l-8 -16l10 -6v-10zM494 997l10 7v190h434l41 -41v-293l-143 6v144l4 20v51h-205v-61l18 -166l-8 -16v-355l43 -6h170v197l133 31v-340l-8 -9l-119 9h-342l-8 47l-10 112v457z" />
<glyph unicode="&#xaa;" horiz-adv-x="581" d="M43 623l33 276l41 238l4 53l20 76l6 61l-4 10l13 11v20l18 92l178 -8l4 -47l21 -55l6 -2v-37l14 -35v-14l-8 -2l14 -11l7 -49l16 -61l10 -15l2 -37l29 -110l-4 -8l8 -11l-4 3l8 -15v2l4 -8l-4 -18l23 -127l8 -2v-17l-6 -10l10 -86l6 -62l-12 -10l-35 4l-63 4l-9 -4 l-32 35v43l-5 8l2 17l-18 28l2 5l-20 -5l-103 -2l-16 9l-23 -60l-8 -80zM238 901l84 6l-39 201l-11 -6v-19l9 -14l-15 -27v-32l-12 -33l8 -6l-2 -15l-8 -10zM274 1128l5 -4l-3 11z" />
<glyph unicode="&#xab;" horiz-adv-x="888" d="M92 748l262 299l35 -9l-10 -180l-107 -88l-16 -39l127 -100l12 -166l-35 -21l-108 142l-23 -2l2 24zM459 743l121 140l22 45l47 20l62 84l34 2v-174l-135 -98l21 -47l131 -92v-162l-45 -8l-111 114z" />
<glyph unicode="&#xac;" horiz-adv-x="1083" d="M43 756v194l55 -14h899v-655h-209l27 452h-446z" />
<glyph unicode="&#xad;" horiz-adv-x="909" d="M84 629v235h635l104 13v-236l-59 21h-90l-170 -21h-318l-65 -25l-23 13h-14z" />
<glyph unicode="&#xae;" horiz-adv-x="1492" d="M72 1528h1286l35 -19v-301l20 -28l-2 -25l-16 -47l12 -10l-8 -97l16 -10l4 -1001l-401 22l-6 -12h-740l-166 8l-30 402v628l12 66v43l-12 12l14 37v14l-14 9l12 14zM240 1159l12 -45v-754l20 -24v-51l-10 -105l6 -12h983v129l-4 27l13 10v37l-7 131l-16 30v484l-18 6 l16 27v233l6 68h-999l8 -138l-8 -16l10 -6v-10zM436 1212h594v-28l41 -295l-14 -12l-137 6l-13 -9l39 -141l66 -201l55 -225h-160l-71 164l-21 59l-65 244l-23 103h-121l25 -267v-184l-10 -111h-154l-14 7zM600 997h289v80h-289l8 -37v-26z" />
<glyph unicode="&#xaf;" horiz-adv-x="727" d="M49 1630v191h625v-181l-45 17h-86l-166 -17h-266l-35 -20z" />
<glyph unicode="&#xb0;" horiz-adv-x="696" d="M72 1651h528l14 -9v-122l11 -13l-7 -73l7 -4l2 -412l-166 10l-2 -6h-305l-76 4v504zM209 1499l2 -39l16 -26l-12 -260l2 -5h272l5 48l-7 53v229h-278z" />
<glyph unicode="&#xb1;" horiz-adv-x="886" d="M76 16v236h622l117 12v-235l-59 20h-109l-307 -24h-156l-26 -5l-45 -16l-23 12h-14zM76 629v235h262v256h240v-256h120l117 13v-236l-59 21h-109l-80 -9v-276h-243l16 129v131h-156l-26 -4l-45 -17l-23 13h-14z" />
<glyph unicode="&#xb2;" horiz-adv-x="544" d="M39 1460l16 10l41 74l156 -4l14 6l90 -6l21 6l59 -41l6 -14l19 -18v-136l-4 -20l16 -6l-10 -21v-164l6 -120l-129 -84l-12 -2l-2 -13l-66 -45h213v-80l21 -65h-424l-9 141l11 21l139 112l115 121l-9 125v137l-14 15h-94l-10 -5l-2 -88l14 -147l-4 -39l2 -90l-72 -2 l-78 -21z" />
<glyph unicode="&#xb3;" horiz-adv-x="575" d="M51 1454l62 84h297l24 -29l41 -30l14 -2l-6 -43l15 -242l-60 -39l19 -29l41 -22v-109l10 -20l-6 -103l6 -41v-38l-62 -84l-47 4h-235l-27 16l-57 51v238l139 -17l-4 -61l4 -14l2 -74l10 -10l19 -6l115 6v121l-11 94l-22 8h-92l-62 -16v167l45 -12l125 10l6 9l-14 174 l-8 6h-125l-6 -12l6 -23l6 -119l-55 4l-95 -26v188z" />
<glyph unicode="&#xb4;" horiz-adv-x="413" d="M41 1624l137 205l195 -21l-11 -22l-139 -152l-41 -10h-141z" />
<glyph unicode="&#xb6;" horiz-adv-x="1093" d="M55 856v637h944v-1446l11 -221l8 -45h-234l13 106v68l-33 2v696l-16 19v393l8 129l10 47l-14 10l-2 13l-127 -13l6 -168l-11 -200v-883l11 -10l-11 -90v-121l-49 6l-215 -8v1079h-299z" />
<glyph unicode="&#xb7;" horiz-adv-x="452" d="M90 733v45l31 49l45 43l51 27h47l49 -33l35 -49l21 -61v-84l-86 -66h-78l-49 29l-41 45z" />
<glyph unicode="&#xb8;" horiz-adv-x="401" d="M63 -164l31 47l43 41l49 27h47l48 -31l36 -51l21 -64v-30l-2 -25l-51 -219l-168 16l-54 269v20z" />
<glyph unicode="&#xb9;" horiz-adv-x="403" d="M68 1221v235l73 72l4 24l29 9h80l55 -9v-174l8 -6v-22l-10 -7l4 -26l2 -27l-8 10l8 -40l6 -21l-8 -27l6 -192v-186l-8 -134l-110 5l-27 -7v465l-14 6l8 17l-2 8l-21 20l17 3l-2 16v33l-43 -23l-15 2z" />
<glyph unicode="&#xba;" horiz-adv-x="579" d="M57 1466h408l29 -14v-141l6 -37l6 -8l-10 -39l4 -8l-4 -50l12 -4l-6 -24v-39l6 -39l-10 -6l14 -23l-6 -8l-2 -22l4 -35l-4 -11l2 -16l6 -4l-6 -74l2 -37l-6 -69l10 -6l-12 -11l6 -16l14 -14l-10 -2l-8 -47l4 -68l-27 8l-86 4l-6 4l-4 -6l-100 4l-4 -6h-164l-11 8l-24 -2 l-19 307v125l7 199l-7 10l9 23l-9 6l7 18zM199 1096l18 -43l-6 -6l25 -15l-35 -20l12 -68l-6 -43l12 -10l-2 -29l-8 -8l6 -4l2 -12l-6 -7l6 -16l-6 -65l154 6l-5 65l9 6v13l-13 88v223l-12 8l14 21v135h-157v-62l6 -4v-12l-8 -8v-133z" />
<glyph unicode="&#xbb;" horiz-adv-x="888" d="M90 868v162l45 8l111 -114l139 -185l-106 -114l-27 -45l-49 -37l-72 -84l-35 -2l10 174l136 98l-21 47zM457 625l137 96l-6 33l-107 114l-24 158l35 21l147 -181l23 -4l-3 -18l101 -101l-262 -299l-35 9z" />
<glyph unicode="&#xbc;" horiz-adv-x="1308" d="M63 37l230 393l2 23l24 22l9 47l24 2l13 39l-7 10l19 11l4 41l18 -4l121 235l27 16l-2 19l14 16l2 13l19 10l2 16l10 8l4 21l20 18l43 80l-2 17l174 258l-2 24l21 4l4 31l18 6l25 66h201l-13 -52l-38 -69l-76 -117l-29 -61l-686 -1143h-193zM109 1221v235l73 72l4 24 l29 9h80l55 -9v-174l8 -6v-22l-10 -7l4 -26l2 -27l-8 10l8 -40l6 -21l-8 -27l6 -192v-186l-8 -134l-110 5l-27 -7v465l-14 6l8 17l-2 8l-21 20l17 3l-2 16v33l-43 -23l-15 2zM643 111v211l211 505h145l-8 -34v-297l23 -224h51l22 -8v-125h-77l-4 -90l10 -24l-58 -7h-84v29 l7 86h-93zM776 264h92v172l-10 8l4 45z" />
<glyph unicode="&#xbd;" horiz-adv-x="1298" d="M63 37l230 393l2 23l24 22l9 47l24 2l13 39l-7 10l19 11l4 41l18 -4l121 235l27 16l-2 19l14 16l2 13l19 10l2 16l10 8l4 21l20 18l43 80l-2 17l174 258l-2 24l21 4l4 31l18 6l25 66h201l-13 -52l-38 -69l-76 -117l-29 -61l-686 -1143h-193zM109 1221v235l73 72l4 24 l29 9h80l55 -9v-174l8 -6v-22l-10 -7l4 -26l2 -27l-8 10l8 -40l6 -21l-8 -27l6 -192v-186l-8 -134l-110 5l-27 -7v465l-14 6l8 17l-2 8l-21 20l17 3l-2 16v33l-43 -23l-15 2zM752 760l16 10l41 74l156 -4l14 6l90 -6l21 6l59 -41l6 -14l19 -19v-135l-5 -21l17 -6l-10 -20 v-164l6 -121l-129 -84l-13 -2l-2 -12l-65 -45h213v-80l20 -66h-424l-8 142l10 20l140 113l114 121l-8 125v137l-14 14h-94l-11 -4l-2 -88l15 -147l-4 -39l2 -91l-72 -2l-78 -20z" />
<glyph unicode="&#xbe;" horiz-adv-x="1480" d="M92 1454l62 84h297l24 -29l41 -30l14 -2l-6 -43l15 -242l-60 -39l19 -29l41 -22v-109l10 -20l-6 -103l6 -41v-38l-62 -84l-47 4h-235l-27 16l-57 51v238l139 -17l-4 -61l4 -14l2 -74l10 -10l19 -6l115 6v121l-11 94l-22 8h-92l-62 -16v167l45 -12l125 10l6 9l-14 174 l-8 6h-125l-6 -12l6 -23l6 -119l-55 4l-95 -26v188zM236 37l229 393l2 23l25 22l8 47l24 2l13 39l-7 10l19 11l4 41l18 -4l121 235l27 16l-2 19l14 16l2 13l19 10l2 16l10 8l4 21l20 18l43 80l-2 17l175 258l-3 24l21 4l4 31l18 6l25 66h201l-13 -52l-38 -69l-76 -117 l-29 -61l-686 -1143h-192zM797 113v211l211 505h145l-8 -34v-297l22 -224h52l22 -8v-125h-78l-4 -90l10 -24l-57 -7h-84v29l6 86h-92zM930 266h92v172l-10 8l4 46z" />
<glyph unicode="&#xbf;" horiz-adv-x="819" d="M59 401v453l197 86l14 31l176 135v59l-8 76l258 16l9 -196l-9 -17l-415 -362l16 -186v-166l37 -17h180l33 15l8 139h-4l-21 141l62 4l125 21l47 16l31 -360v-74l-93 -145h-497l-90 65l-31 55v181zM418 1417v64l28 47l43 26l50 13h43l49 -29l41 -47l24 -53v-47l-30 -48 l-43 -40l-52 -27h-49l-49 33l-35 49z" />
<glyph unicode="&#xc0;" horiz-adv-x="925" d="M45 33l78 645l90 477l20 64v86l15 16v59l20 39l13 94l284 -12l8 -78l17 -53l20 -41l11 -8v-84l24 -41l-4 -45l14 2l43 -211l19 -24l26 -158l27 -98l-6 -17l41 -153l12 -74l4 -72l21 -39v-10l-11 -16l9 -23l12 -131l8 -111l-8 -8h-45l-109 17l-26 -5l-43 46l4 77l-17 11 v16l11 10l-37 60l10 30l-65 -16l-52 4l-151 -6l-21 27l-22 -60l-33 -133l-8 -72zM297 1778l192 20l140 -205h-142l-41 11l-63 63zM348 496l43 8l164 10l-96 616h-25l-53 -485h18v-12l-32 -72z" />
<glyph unicode="&#xc1;" horiz-adv-x="925" d="M45 33l78 645l90 477l20 64v86l15 16v59l20 39l13 94l284 -12l8 -78l17 -53l20 -41l11 -8v-84l24 -41l-4 -45l14 2l43 -211l19 -24l26 -158l27 -98l-6 -17l41 -153l12 -74l4 -72l21 -39v-10l-11 -16l9 -23l12 -131l8 -111l-8 -8h-45l-109 17l-26 -5l-43 46l4 77l-17 11 v16l11 10l-37 60l10 30l-65 -16l-52 4l-151 -6l-21 27l-22 -60l-33 -133l-8 -72zM297 1593l137 205l195 -20l-11 -23l-139 -151l-41 -11h-141zM348 496l43 8l164 10l-96 616h-25l-53 -485h18v-12l-32 -72z" />
<glyph unicode="&#xc2;" horiz-adv-x="925" d="M45 33l78 645l90 477l20 64v86l15 16v59l20 39l13 94l284 -12l8 -78l17 -53l20 -41l11 -8v-84l24 -41l-4 -45l14 2l43 -211l19 -24l26 -158l27 -98l-6 -17l41 -153l12 -74l4 -72l21 -39v-10l-11 -16l9 -23l12 -131l8 -111l-8 -8h-45l-109 17l-26 -5l-43 46l4 77l-17 11 v16l11 10l-37 60l10 30l-65 -16l-52 4l-151 -6l-21 27l-22 -60l-33 -133l-8 -72zM180 1581l66 209h405l92 -209h-215l-69 145l-68 -145h-211zM348 496l43 8l164 10l-96 616h-25l-53 -485h18v-12l-32 -72z" />
<glyph unicode="&#xc3;" horiz-adv-x="925" d="M45 33l78 645l90 477l20 64v86l15 16v59l20 39l13 94l284 -12l8 -78l17 -53l20 -41l11 -8v-84l24 -41l-4 -45l14 2l43 -211l19 -24l26 -158l27 -98l-6 -17l41 -153l12 -74l4 -72l21 -39v-10l-11 -16l9 -23l12 -131l8 -111l-8 -8h-45l-109 17l-26 -5l-43 46l4 77l-17 11 v16l11 10l-37 60l10 30l-65 -16l-52 4l-151 -6l-21 27l-22 -60l-33 -133l-8 -72zM139 1587l27 219h305l129 -127l12 133h172l-20 -221h-313l-123 140l-29 -132zM348 496l43 8l164 10l-96 616h-25l-53 -485h18v-12l-32 -72z" />
<glyph unicode="&#xc4;" horiz-adv-x="925" d="M45 33l78 645l90 477l20 64v86l15 16v59l20 39l13 94l284 -12l8 -78l17 -53l20 -41l11 -8v-84l24 -41l-4 -45l14 2l43 -211l19 -24l26 -158l27 -98l-6 -17l41 -153l12 -74l4 -72l21 -39v-10l-11 -16l9 -23l12 -131l8 -111l-8 -8h-45l-109 17l-26 -5l-43 46l4 77l-17 11 v16l11 10l-37 60l10 30l-65 -16l-52 4l-151 -6l-21 27l-22 -60l-33 -133l-8 -72zM176 1581v195h178l8 -31l17 -164h-203zM348 496l43 8l164 10l-96 616h-25l-53 -485h18v-12l-32 -72zM569 1573v211h181v-211l-37 10z" />
<glyph unicode="&#xc5;" horiz-adv-x="925" d="M45 33l78 645l90 477l20 64v86l15 16v59l20 39l11 82l-39 35v115l30 65l54 47l69 27h78l70 -27l51 -47l31 -65v-115l-56 -51l6 -62l17 -53l20 -41l11 -8v-84l24 -41l-4 -45l14 2l43 -211l19 -24l26 -158l27 -98l-6 -17l41 -153l12 -74l4 -72l21 -39v-10l-11 -16l9 -23 l20 -242l-8 -8h-45l-109 17l-26 -5l-43 46l4 77l-17 11v16l11 10l-37 60l10 30l-65 -16l-52 4l-151 -6l-21 27l-22 -60l-33 -133l-8 -72zM309 1565l62 -56l114 -6l68 62v96l-74 65h-98l-72 -63v-98zM348 496l43 8l164 10l-96 616h-25l-53 -485h18v-12l-32 -72z" />
<glyph unicode="&#xc6;" horiz-adv-x="1423" d="M16 33l78 645l90 477l21 64v86l14 16v59l21 39l12 94h1024l43 -20v-217l-33 14h-393l-84 -4l-12 -12v-144l10 -77v-142l16 -14h205l133 14v-241h-364l24 -133v-168l-6 -66l8 -88h510v-213l-80 4l-30 -6l-19 12l-80 -12h-512v53l-12 13v79l-12 9v16l8 8v4l-35 58l10 30 l-65 -16l-51 4l-152 -6l-20 27l-23 -60l-33 -133l-8 -72zM319 496l43 8h232l16 422l-35 381l-63 -15l-82 11l-76 -508v-150h17v-12l-33 -72z" />
<glyph unicode="&#xc7;" horiz-adv-x="907" d="M57 1190l15 12v344h673l37 6l37 -34l-12 -48v-559l-53 9l-37 18l-19 -2l-10 16l-37 -10h-22l-43 12v260l8 35v92h-320v-108l29 -299l-12 -29v-456l-10 -11l16 -16l-12 -35v-35l12 -6l-6 -82l67 -10h263v356l206 54v-613l-14 -14l-182 16h-445l-86 -4l-12 88l-16 201v172 l-9 41l11 106l-13 37v197l21 70v200zM315 -164l31 47l43 41l49 27h47l47 -31l37 -51l21 -64v-30l-2 -25l-51 -219l-168 16l-54 269v20z" />
<glyph unicode="&#xc8;" horiz-adv-x="806" d="M33 1509h698l43 -16v-217l-33 14h-393l-84 -4l-12 -12v-144l10 -77v-142l17 -14h204l133 14l5 -88l-9 -8l11 -145h-371l24 -133v-168l-6 -66l9 -88h509v-213l-79 4l-31 -6l-19 12l-79 -12h-512v92l-17 72v1337zM238 1778l192 20l139 -205h-141l-41 11l-63 63z" />
<glyph unicode="&#xc9;" horiz-adv-x="806" d="M33 1509h698l43 -16v-217l-33 14h-393l-84 -4l-12 -12v-144l10 -77v-142l17 -14h204l133 14l5 -88l-9 -8l11 -145h-371l24 -133v-168l-6 -66l9 -88h509v-213l-79 4l-31 -6l-19 12l-79 -12h-512v92l-17 72v1337zM238 1593l137 205l194 -20l-10 -23l-139 -151l-41 -11h-141 z" />
<glyph unicode="&#xca;" horiz-adv-x="806" d="M33 1509h698l43 -16v-217l-33 14h-393l-84 -4l-12 -12v-144l10 -77v-142l17 -14h204l133 14l5 -88l-9 -8l11 -145h-371l24 -133v-168l-6 -66l9 -88h509v-213l-79 4l-31 -6l-19 12l-79 -12h-512v92l-17 72v1337zM121 1581l65 209h406l92 -209h-215l-70 145l-67 -145h-211z " />
<glyph unicode="&#xcb;" horiz-adv-x="806" d="M33 1509h698l43 -16v-217l-33 14h-393l-84 -4l-12 -12v-144l10 -77v-142l17 -14h204l133 14l5 -88l-9 -8l11 -145h-371l24 -133v-168l-6 -66l9 -88h509v-213l-79 4l-31 -6l-19 12l-79 -12h-512v92l-17 72v1337zM117 1581v195h178l8 -31l16 -164h-202zM510 1573v211h180 v-211l-37 10z" />
<glyph unicode="&#xcc;" horiz-adv-x="456" d="M61 1778l193 20l139 -205h-141l-41 11l-64 63zM78 838l12 20l-6 86l6 135l6 8l-12 9l4 43l12 22l-16 21l12 39v227l15 76h170l65 6l29 -246v-668l6 -145l-4 -76l14 -8l-16 -59v-250l-13 2v-76l9 -6h-260l-27 98l12 29v133l-12 356l8 17v186z" />
<glyph unicode="&#xcd;" horiz-adv-x="456" d="M61 1593l138 205l194 -20l-10 -23l-139 -151l-41 -11h-142zM78 838l12 20l-6 86l6 135l6 8l-12 9l4 43l12 22l-16 21l12 39v227l15 76h170l65 6l29 -246v-668l6 -145l-4 -76l14 -8l-16 -59v-250l-13 2v-76l9 -6h-260l-27 98l12 29v133l-12 356l8 17v186z" />
<glyph unicode="&#xce;" horiz-adv-x="456" d="M-51 1581l65 209h406l92 -209h-215l-70 145l-67 -145h-211zM78 838l12 20l-6 86l6 135l6 8l-12 9l4 43l12 22l-16 21l12 39v227l15 76h170l65 6l29 -246v-668l6 -145l-4 -76l14 -8l-16 -59v-250l-13 2v-76l9 -6h-260l-27 98l12 29v133l-12 356l8 17v186z" />
<glyph unicode="&#xcf;" horiz-adv-x="456" d="M-55 1581v195h178l8 -31l16 -164h-202zM78 838l12 20l-6 86l6 135l6 8l-12 9l4 43l12 22l-16 21l12 39v227l15 76h170l65 6l29 -246v-668l6 -145l-4 -76l14 -8l-16 -59v-250l-13 2v-76l9 -6h-260l-27 98l12 29v133l-12 356l8 17v186zM338 1573v211h180v-211l-37 10z" />
<glyph unicode="&#xd0;" horiz-adv-x="1001" d="M66 1300l8 23v119l-8 108l694 -37l37 -59l106 -133v-1137l-16 -14l-64 -84l-45 -72l-164 9h-536l12 8v119l-12 104l14 -2l25 8l28 -16l70 4v403h-123l17 191h106v418l-10 45l-125 -11zM426 1307l14 -129v-322l82 14l17 -219h-99v-420h131l117 9l-29 358l-12 84l19 6 l-23 205v145l21 269h-238z" />
<glyph unicode="&#xd1;" horiz-adv-x="993" d="M74 1012v286l24 228l52 -10h104l35 12l153 -340l13 -8l-4 -9l22 -49l2 -24l70 -146l112 -325l11 -11l-37 857l18 49h215l25 -256v-60l16 -153l8 -9v-20l-12 -6l21 -393l8 -9l-10 -30l6 -6l-13 -207l15 -23l-15 -6v-22l17 -9l-17 -20l-10 -41l-8 -234h-233l-13 25l6 18 l-75 158l-105 244l-113 293l-43 137v-143l13 -29l-10 -59l16 -123l-2 -17l6 -14l-16 -465l-35 -10h-80l-10 10l-17 -6h-45l-30 6zM174 1587l27 219h305l129 -127l12 133h172l-20 -221h-314l-123 140l-28 -132z" />
<glyph unicode="&#xd2;" d="M72 1528h712l35 -19v-301l21 -28l-2 -25l-17 -47l13 -10l-9 -97l17 -10l-8 -110l12 -23v-31l-19 -14l25 -47l-12 -10l6 -25l-6 -18v-49l6 -21l-8 -12l6 -25l-4 -18l12 -8l-8 -23v-145l14 -9l-12 -8l2 -35l-6 -88l-8 -16l10 -8l-17 -8l7 -23l18 -33l-18 -16l12 -4l-10 -58 l8 -116l-13 2l-16 16l-10 -18h-12l-11 16l-10 -10l-16 6h-92l-25 10v-10h-96l-99 10l-6 -12h-166l-133 12l-6 6l-10 -10h-17l-30 402v628l12 66v43l-12 12l14 37v14l-14 9l12 14zM287 1120l12 -41v-268l12 -14l-4 -9l-14 -8l31 -18l-35 -29l22 -135l6 -188l-18 -11l18 -22 v-45l-10 -94l6 -13l181 13h133v104l-4 25l12 8v35l-6 116l-15 29v436l-16 6l14 23v211l6 61h-329l8 -123l-8 -16l10 -4v-10zM295 1778l192 20l140 -205h-142l-41 11l-63 63z" />
<glyph unicode="&#xd3;" d="M72 1528h712l35 -19v-301l21 -28l-2 -25l-17 -47l13 -10l-9 -97l17 -10l-8 -110l12 -23v-31l-19 -14l25 -47l-12 -10l6 -25l-6 -18v-49l6 -21l-8 -12l6 -25l-4 -18l12 -8l-8 -23v-145l14 -9l-12 -8l2 -35l-6 -88l-8 -16l10 -8l-17 -8l7 -23l18 -33l-18 -16l12 -4l-10 -58 l8 -116l-13 2l-16 16l-10 -18h-12l-11 16l-10 -10l-16 6h-92l-25 10v-10h-96l-99 10l-6 -12h-166l-133 12l-6 6l-10 -10h-17l-30 402v628l12 66v43l-12 12l14 37v14l-14 9l12 14zM287 1120l12 -41v-268l12 -14l-4 -9l-14 -8l31 -18l-35 -29l22 -135l6 -188l-18 -11l18 -22 v-45l-10 -94l6 -13l181 13h133v104l-4 25l12 8v35l-6 116l-15 29v436l-16 6l14 23v211l6 61h-329l8 -123l-8 -16l10 -4v-10zM295 1593l137 205l195 -20l-11 -23l-139 -151l-41 -11h-141z" />
<glyph unicode="&#xd4;" d="M72 1528h712l35 -19v-301l21 -28l-2 -25l-17 -47l13 -10l-9 -97l17 -10l-8 -110l12 -23v-31l-19 -14l25 -47l-12 -10l6 -25l-6 -18v-49l6 -21l-8 -12l6 -25l-4 -18l12 -8l-8 -23v-145l14 -9l-12 -8l2 -35l-6 -88l-8 -16l10 -8l-17 -8l7 -23l18 -33l-18 -16l12 -4l-10 -58 l8 -116l-13 2l-16 16l-10 -18h-12l-11 16l-10 -10l-16 6h-92l-25 10v-10h-96l-99 10l-6 -12h-166l-133 12l-6 6l-10 -10h-17l-30 402v628l12 66v43l-12 12l14 37v14l-14 9l12 14zM178 1581l66 209h405l92 -209h-215l-69 145l-68 -145h-211zM287 1120l12 -41v-268l12 -14 l-4 -9l-14 -8l31 -18l-35 -29l22 -135l6 -188l-18 -11l18 -22v-45l-10 -94l6 -13l181 13h133v104l-4 25l12 8v35l-6 116l-15 29v436l-16 6l14 23v211l6 61h-329l8 -123l-8 -16l10 -4v-10z" />
<glyph unicode="&#xd5;" d="M72 1528h712l35 -19v-301l21 -28l-2 -25l-17 -47l13 -10l-9 -97l17 -10l-8 -110l12 -23v-31l-19 -14l25 -47l-12 -10l6 -25l-6 -18v-49l6 -21l-8 -12l6 -25l-4 -18l12 -8l-8 -23v-145l14 -9l-12 -8l2 -35l-6 -88l-8 -16l10 -8l-17 -8l7 -23l18 -33l-18 -16l12 -4l-10 -58 l8 -116l-13 2l-16 16l-10 -18h-12l-11 16l-10 -10l-16 6h-92l-25 10v-10h-96l-99 10l-6 -12h-166l-133 12l-6 6l-10 -10h-17l-30 402v628l12 66v43l-12 12l14 37v14l-14 9l12 14zM137 1587l27 219h305l129 -127l12 133h172l-20 -221h-313l-123 140l-29 -132zM287 1120 l12 -41v-268l12 -14l-4 -9l-14 -8l31 -18l-35 -29l22 -135l6 -188l-18 -11l18 -22v-45l-10 -94l6 -13l181 13h133v104l-4 25l12 8v35l-6 116l-15 29v436l-16 6l14 23v211l6 61h-329l8 -123l-8 -16l10 -4v-10z" />
<glyph unicode="&#xd6;" d="M72 1528h712l35 -19v-301l21 -28l-2 -25l-17 -47l13 -10l-9 -97l17 -10l-8 -110l12 -23v-31l-19 -14l25 -47l-12 -10l6 -25l-6 -18v-49l6 -21l-8 -12l6 -25l-4 -18l12 -8l-8 -23v-145l14 -9l-12 -8l2 -35l-6 -88l-8 -16l10 -8l-17 -8l7 -23l18 -33l-18 -16l12 -4l-10 -58 l8 -116l-13 2l-16 16l-10 -18h-12l-11 16l-10 -10l-16 6h-92l-25 10v-10h-96l-99 10l-6 -12h-166l-133 12l-6 6l-10 -10h-17l-30 402v628l12 66v43l-12 12l14 37v14l-14 9l12 14zM174 1581v195h178l8 -31l17 -164h-203zM287 1120l12 -41v-268l12 -14l-4 -9l-14 -8l31 -18 l-35 -29l22 -135l6 -188l-18 -11l18 -22v-45l-10 -94l6 -13l181 13h133v104l-4 25l12 8v35l-6 116l-15 29v436l-16 6l14 23v211l6 61h-329l8 -123l-8 -16l10 -4v-10zM567 1573v211h181v-211l-37 10z" />
<glyph unicode="&#xd7;" horiz-adv-x="886" d="M96 571l103 80l94 92l-111 111l-22 14l-43 21l-6 24l-11 11l166 168l187 -187l180 180l170 -167l-182 -183l86 -84l92 -73l-168 -168l-27 57l-78 76l-61 51l-197 -195z" />
<glyph unicode="&#xd8;" d="M100 547v981h680l19 -10l45 -9v-309l20 -20l-16 -72l10 -10v-496l19 -22l-7 -590h-358l-41 22l-6 -12h-238l-94 8l-16 205zM313 733l13 -86l14 -35l10 -2l240 680h-121l-156 8v-565zM397 229h256v119l6 123l-18 64v380z" />
<glyph unicode="&#xd9;" horiz-adv-x="974" d="M68 240l24 172v1085h203v-674l24 -303l-8 -10l-16 -291h311l19 25v1253h256l-15 -94v-1397h-624l-166 -12v221zM322 1778l192 20l139 -205h-141l-41 11l-63 63z" />
<glyph unicode="&#xda;" horiz-adv-x="974" d="M68 240l24 172v1085h203v-674l24 -303l-8 -10l-16 -291h311l19 25v1253h256l-15 -94v-1397h-624l-166 -12v221zM322 1593l137 205l194 -20l-10 -23l-139 -151l-41 -11h-141z" />
<glyph unicode="&#xdb;" horiz-adv-x="974" d="M68 240l24 172v1085h203v-674l24 -303l-8 -10l-16 -291h311l19 25v1253h256l-15 -94v-1397h-624l-166 -12v221zM205 1581l65 209h406l92 -209h-215l-70 145l-67 -145h-211z" />
<glyph unicode="&#xdc;" horiz-adv-x="974" d="M68 240l24 172v1085h203v-674l24 -303l-8 -10l-16 -291h311l19 25v1253h256l-15 -94v-1397h-624l-166 -12v221zM201 1581v195h178l8 -31l16 -164h-202zM594 1573v211h180v-211l-37 10z" />
<glyph unicode="&#xdd;" horiz-adv-x="849" d="M51 1548h238l135 -461l127 443h240l-164 -379l-76 -242l-8 -75v-392l8 -36l-25 -19l6 -18v-328h-233v795l-12 82l-43 145zM258 1593l137 205l195 -20l-10 -23l-140 -151l-41 -11h-141z" />
<glyph unicode="&#xde;" horiz-adv-x="962" d="M80 1028v481l119 -6l32 4v-465h492l139 -8v-14l21 -16l-13 -23v-508h-591v-57l24 -404l-20 -12l-43 12l-11 -2l-10 -10l-37 12h-53l-37 -10v1004zM268 834l19 -76v-60h387v136h-406z" />
<glyph unicode="&#xdf;" horiz-adv-x="1921" d="M78 868v641h323l11 9l34 -5l9 -8l65 13l10 -13l64 17l33 -2l6 -11l155 13l11 -13l47 -14l8 -90l-12 -6l24 -35v-57l-8 -15l14 -26v-353l-206 19l-19 65v275l-37 4l-96 -6h-225v-80l12 -21l-8 -22v-49l8 -8l-6 -19v-43l27 -20l473 -246v-17l92 -40v-15l-10 -6l12 -293 l-12 -59l14 -8l2 -23l6 -4l-29 -135v-49l17 -27l-8 -70l-154 9l-20 -5h-592l-15 43l-14 130v438l8 12l86 4h133v-96l15 -21l-13 -10v-186l-6 -17l10 -88h359l-23 365zM1038 868v641h324l10 9l35 -5l8 -8l66 13l10 -13l63 17l33 -2l6 -11l156 13l10 -13l47 -14l9 -90l-13 -6 l25 -35v-57l-8 -15l14 -26v-353l-207 19l-18 65v275l-37 4l-96 -6h-226v-80l13 -21l-9 -22v-49l9 -8l-7 -19v-43l27 -20l473 -246v-17l92 -40v-15l-10 -6l12 -293l-12 -59l14 -8l2 -23l7 -4l-29 -135v-49l16 -27l-8 -70l-153 9l-21 -5h-592l-14 43l-15 130v438l9 12l86 4 h133v-96l14 -21l-12 -10v-186l-6 -17l10 -88h358l-22 365z" />
<glyph unicode="&#xe0;" horiz-adv-x="903" d="M53 -2l150 1102l10 4l25 139l38 133l11 119h196l84 6l15 -45l-2 -45l12 -10l43 -152l53 -235l113 -604l67 -422h-172l-67 282h-338l-47 -272h-191zM285 1808l192 21l139 -205h-141l-41 10l-63 64zM346 512h240l-142 643v-145z" />
<glyph unicode="&#xe1;" horiz-adv-x="903" d="M53 -2l150 1102l10 4l25 139l38 133l11 119h196l84 6l15 -45l-2 -45l12 -10l43 -152l53 -235l113 -604l67 -422h-172l-67 282h-338l-47 -272h-191zM285 1624l137 205l194 -21l-10 -22l-139 -152l-41 -10h-141zM346 512h240l-142 643v-145z" />
<glyph unicode="&#xe2;" horiz-adv-x="903" d="M53 -2l150 1102l10 4l25 139l38 133l11 119h196l84 6l15 -45l-2 -45l12 -10l43 -152l53 -235l113 -604l67 -422h-172l-67 282h-338l-47 -272h-191zM170 1612l66 209h405l92 -209h-215l-69 145l-68 -145h-211zM346 512h240l-142 643v-145z" />
<glyph unicode="&#xe3;" horiz-adv-x="903" d="M53 -2l150 1102l10 4l25 139l38 133l11 119h196l84 6l15 -45l-2 -45l12 -10l43 -152l53 -235l113 -604l67 -422h-172l-67 282h-338l-47 -272h-191zM129 1618l27 219h305l129 -127l12 133h172l-20 -221h-314l-123 139l-28 -131zM346 512h240l-142 643v-145z" />
<glyph unicode="&#xe4;" horiz-adv-x="903" d="M53 -2l150 1102l10 4l25 139l38 133l11 119h196l84 6l15 -45l-2 -45l12 -10l43 -152l53 -235l113 -604l67 -422h-172l-67 282h-338l-47 -272h-191zM164 1612v194h178l8 -30l17 -164h-203zM346 512h240l-142 643v-145zM557 1604v211h180v-211l-37 10z" />
<glyph unicode="&#xe5;" horiz-adv-x="903" d="M53 -2l150 1102l10 4l25 139l38 133l11 119h55l-82 72v114l31 66l53 47l70 27h78l69 -27l51 -47l31 -66v-114l-76 -68l15 -43l-2 -45l12 -10l43 -152l53 -235l113 -604l67 -422h-172l-67 282h-338l-47 -272h-191zM330 1595l71 -63h101l71 63v97l-73 65h-99l-71 -63v-99z M346 512h240l-142 643v-145z" />
<glyph unicode="&#xe6;" horiz-adv-x="1423" d="M16 33l78 645l90 477l21 64v86l14 16v59l21 39l12 94h1024l43 -20v-217l-33 14h-393l-84 -4l-12 -12v-144l10 -77v-142l16 -14h205l133 14v-241h-364l24 -133v-168l-6 -66l8 -88h510v-213l-80 4l-30 -6l-19 12l-80 -12h-512v53l-12 13v79l-12 9v16l8 8v4l-35 58l10 30 l-65 -16l-51 4l-152 -6l-20 27l-23 -60l-33 -133l-8 -72zM319 496l43 8h232l16 422l-35 381l-63 -15l-82 11l-76 -508v-150h17v-12l-33 -72z" />
<glyph unicode="&#xe7;" horiz-adv-x="1005" d="M51 969l12 18l-8 27l8 2v471h857v-510l14 -35l-14 -8v-72l-50 -4l-6 8l-16 -24l-41 16l-25 -22l-4 14l-123 -31v357l-4 43l6 34l-28 -6l-336 -16l18 -133v-137l13 -78v-62l10 -8v-569l160 18h182l2 6l-10 15l12 63l-18 33v127l-13 29l13 -3l6 19l-17 4v29l15 39h133 l24 22h8l17 -12l26 8h54l6 -248l12 -39l-12 -61v-37h-12l-7 -6l17 -74l-10 -16v-56l6 -32l-13 -62l-118 17l-29 -13h-674l-28 248l16 12v50l-8 63v295l-17 106l6 5v94zM365 -164l30 47l43 41l49 27h48l47 -31l36 -51l21 -64v-30l-2 -25l-51 -219l-168 16l-53 269v20z" />
<glyph unicode="&#xe8;" horiz-adv-x="825" d="M31 1282l16 21v227h713l8 -25v-96l-6 -20l24 -107h-143l-352 -18l-17 -11l-2 -36l-22 -13l24 -262l127 8l74 -8l137 -29v-84l-14 -57l14 -29v-43l-338 -18l-8 -20l-10 -72v-58l10 -20v-178l25 -12h334l49 14l147 24l-24 -202l6 -90h-713l-33 673v498zM246 1808l192 21 l140 -205h-142l-41 10l-63 64z" />
<glyph unicode="&#xe9;" horiz-adv-x="825" d="M31 1282l16 21v227h713l8 -25v-96l-6 -20l24 -107h-143l-352 -18l-17 -11l-2 -36l-22 -13l24 -262l127 8l74 -8l137 -29v-84l-14 -57l14 -29v-43l-338 -18l-8 -20l-10 -72v-58l10 -20v-178l25 -12h334l49 14l147 24l-24 -202l6 -90h-713l-33 673v498zM246 1624l137 205 l195 -21l-11 -22l-139 -152l-41 -10h-141z" />
<glyph unicode="&#xea;" horiz-adv-x="825" d="M31 1282l16 21v227h713l8 -25v-96l-6 -20l24 -107h-143l-352 -18l-17 -11l-2 -36l-22 -13l24 -262l127 8l74 -8l137 -29v-84l-14 -57l14 -29v-43l-338 -18l-8 -20l-10 -72v-58l10 -20v-178l25 -12h334l49 14l147 24l-24 -202l6 -90h-713l-33 673v498zM131 1612l66 209 h405l92 -209h-215l-69 145l-68 -145h-211z" />
<glyph unicode="&#xeb;" horiz-adv-x="825" d="M31 1282l16 21v227h713l8 -25v-96l-6 -20l24 -107h-143l-352 -18l-17 -11l-2 -36l-22 -13l24 -262l127 8l74 -8l137 -29v-84l-14 -57l14 -29v-43l-338 -18l-8 -20l-10 -72v-58l10 -20v-178l25 -12h334l49 14l147 24l-24 -202l6 -90h-713l-33 673v498zM125 1612v194h178 l8 -30l17 -164h-203zM518 1604v211h180v-211l-36 10z" />
<glyph unicode="&#xec;" horiz-adv-x="456" d="M61 1778l193 20l139 -205h-141l-41 11l-64 63zM78 838l12 20l-6 86l6 135l6 8l-12 9l4 43l12 22l-16 21l12 39v227l15 76h170l65 6l29 -246v-668l6 -145l-4 -76l14 -8l-16 -59v-250l-13 2v-76l9 -6h-260l-27 98l12 29v133l-12 356l8 17v186z" />
<glyph unicode="&#xed;" horiz-adv-x="456" d="M61 1593l138 205l194 -20l-10 -23l-139 -151l-41 -11h-142zM78 838l12 20l-6 86l6 135l6 8l-12 9l4 43l12 22l-16 21l12 39v227l15 76h170l65 6l29 -246v-668l6 -145l-4 -76l14 -8l-16 -59v-250l-13 2v-76l9 -6h-260l-27 98l12 29v133l-12 356l8 17v186z" />
<glyph unicode="&#xee;" horiz-adv-x="456" d="M-51 1581l65 209h406l92 -209h-215l-70 145l-67 -145h-211zM78 838l12 20l-6 86l6 135l6 8l-12 9l4 43l12 22l-16 21l12 39v227l15 76h170l65 6l29 -246v-668l6 -145l-4 -76l14 -8l-16 -59v-250l-13 2v-76l9 -6h-260l-27 98l12 29v133l-12 356l8 17v186z" />
<glyph unicode="&#xef;" horiz-adv-x="456" d="M-55 1581v195h178l8 -31l16 -164h-202zM78 838l12 20l-6 86l6 135l6 8l-12 9l4 43l12 22l-16 21l12 39v227l15 76h170l65 6l29 -246v-668l6 -145l-4 -76l14 -8l-16 -59v-250l-13 2v-76l9 -6h-260l-27 98l12 29v133l-12 356l8 17v186zM338 1573v211h180v-211l-37 10z" />
<glyph unicode="&#xf0;" horiz-adv-x="1001" d="M66 1300l8 23v119l-8 108l694 -37l37 -59l106 -133v-1137l-16 -14l-64 -84l-45 -72l-164 9h-536l12 8v119l-12 104l14 -2l25 8l28 -16l70 4v403h-123l17 191h106v418l-10 45l-125 -11zM426 1307l14 -129v-322l82 14l17 -219h-99v-420h131l117 9l-29 358l-12 84l19 6 l-23 205v145l21 269h-238z" />
<glyph unicode="&#xf1;" horiz-adv-x="952" d="M63 541l11 41v872l-11 62h158l10 10l25 -10l47 10l41 -162l29 -29l63 -166l23 -12l-10 -12l34 -70l-6 -12l168 -422l17 -23v107l-35 356l10 13v194l-16 10l16 15v203h215v-498l16 -17l-12 -30l16 -25v-358l2 -58l-6 -8v-315l-16 -6v-115l8 -59h-180l-371 938v-932h-200 l-23 129l12 12zM154 1618l26 219h305l129 -127l13 133h172l-21 -221h-313l-123 139l-29 -131z" />
<glyph unicode="&#xf2;" horiz-adv-x="942" d="M66 1118v168l10 25v221l225 -10h547v-961l29 -530h-787v952zM291 1307l22 -346l-12 -19l12 -29l-16 -18l16 -6v-649h326v663l-21 379l-14 25h-313zM305 1808l193 21l139 -205h-141l-41 10l-64 64z" />
<glyph unicode="&#xf3;" horiz-adv-x="942" d="M66 1118v168l10 25v221l225 -10h547v-961l29 -530h-787v952zM291 1307l22 -346l-12 -19l12 -29l-16 -18l16 -6v-649h326v663l-21 379l-14 25h-313zM305 1624l137 205l195 -21l-10 -22l-140 -152l-41 -10h-141z" />
<glyph unicode="&#xf4;" horiz-adv-x="942" d="M66 1118v168l10 25v221l225 -10h547v-961l29 -530h-787v952zM188 1612l66 209h405l93 -209h-215l-70 145l-68 -145h-211zM291 1307l22 -346l-12 -19l12 -29l-16 -18l16 -6v-649h326v663l-21 379l-14 25h-313z" />
<glyph unicode="&#xf5;" horiz-adv-x="942" d="M66 1118v168l10 25v221l225 -10h547v-961l29 -530h-787v952zM147 1618l27 219h305l129 -127l13 133h172l-21 -221h-313l-123 139l-29 -131zM291 1307l22 -346l-12 -19l12 -29l-16 -18l16 -6v-649h326v663l-21 379l-14 25h-313z" />
<glyph unicode="&#xf6;" horiz-adv-x="942" d="M66 1118v168l10 25v221l225 -10h547v-961l29 -530h-787v952zM184 1612v194h178l9 -30l16 -164h-203zM291 1307l22 -346l-12 -19l12 -29l-16 -18l16 -6v-649h326v663l-21 379l-14 25h-313zM578 1604v211h180v-211l-37 10z" />
<glyph unicode="&#xf7;" horiz-adv-x="886" d="M76 629v235h622l117 13v-236l-59 21h-117l-307 -25h-148l-26 -4l-45 -17l-23 13h-14zM315 1094v45l31 49l45 43l49 26h49l50 -32l34 -51l21 -62v-80l-86 -67h-80l-49 28l-39 47zM317 377v45l31 49l45 43l49 27h50l49 -33l34 -51l21 -62v-80l-86 -67h-80l-49 28l-39 48z " />
<glyph unicode="&#xf8;" d="M100 547v981h680l19 -10l45 -9v-309l20 -20l-16 -72l10 -10v-496l19 -22l-7 -590h-358l-41 22l-6 -12h-238l-94 8l-16 205zM313 733l13 -86l14 -35l10 -2l240 680h-121l-156 8v-565zM397 229h256v119l6 123l-18 64v380z" />
<glyph unicode="&#xf9;" horiz-adv-x="905" d="M61 1528l242 -19v-712l-18 -17l28 -18l-10 -29v-508h315l-6 142v1149h133l64 -7v-639l27 -43l-17 -14l23 -47l-13 -10v-242l7 -119l-11 -139l11 -8l-17 -8l17 -250l-29 22h-371l-6 6h-307l-55 -10v1211l12 14zM287 1808l192 21l139 -205h-141l-41 10l-63 64z" />
<glyph unicode="&#xfa;" horiz-adv-x="905" d="M61 1528l242 -19v-712l-18 -17l28 -18l-10 -29v-508h315l-6 142v1149h133l64 -7v-639l27 -43l-17 -14l23 -47l-13 -10v-242l7 -119l-11 -139l11 -8l-17 -8l17 -250l-29 22h-371l-6 6h-307l-55 -10v1211l12 14zM287 1624l137 205l194 -21l-10 -22l-139 -152l-41 -10h-141z " />
<glyph unicode="&#xfb;" horiz-adv-x="905" d="M61 1528l242 -19v-712l-18 -17l28 -18l-10 -29v-508h315l-6 142v1149h133l64 -7v-639l27 -43l-17 -14l23 -47l-13 -10v-242l7 -119l-11 -139l11 -8l-17 -8l17 -250l-29 22h-371l-6 6h-307l-55 -10v1211l12 14zM170 1612l66 209h405l92 -209h-215l-69 145l-68 -145h-211z " />
<glyph unicode="&#xfc;" horiz-adv-x="905" d="M61 1528l242 -19v-712l-18 -17l28 -18l-10 -29v-508h315l-6 142v1149h133l64 -7v-639l27 -43l-17 -14l23 -47l-13 -10v-242l7 -119l-11 -139l11 -8l-17 -8l17 -250l-29 22h-371l-6 6h-307l-55 -10v1211l12 14zM166 1612v194h178l8 -30l17 -164h-203zM559 1604v211h180 v-211l-37 10z" />
<glyph unicode="&#xfd;" horiz-adv-x="819" d="M53 1546h240l127 -491l39 186l96 299h238l-97 -240l-114 -323l-47 -234v-712h-242v338l24 18l-24 19l10 36v402l-162 483zM244 1624l137 205l194 -21l-10 -22l-139 -152l-41 -10h-141z" />
<glyph unicode="&#xfe;" horiz-adv-x="962" d="M80 1028v481l119 -6l32 4v-465h492l139 -8v-14l21 -16l-13 -23v-508h-591v-57l24 -404l-20 -12l-43 12l-11 -2l-10 -10l-37 12h-53l-37 -10v1004zM268 834l19 -76v-60h387v136h-406z" />
<glyph unicode="&#xff;" horiz-adv-x="819" d="M53 1546h240l127 -491l39 186l96 299h238l-97 -240l-114 -323l-47 -234v-712h-242v338l24 18l-24 19l10 36v402l-162 483zM123 1612v194h178l8 -30l17 -164h-203zM516 1604v211h180v-211l-37 10z" />
<glyph unicode="&#x152;" horiz-adv-x="1413" d="M63 1528h1237l43 -35v-217l-32 14h-393l-84 -4l-13 -12v-363l27 -14h205l133 14l4 -88l-8 -8l10 -145h-361l7 -27v-237l12 -3l-8 -20v-80l6 -88h510v-213l-80 4l-31 -6l-18 12l-80 -12h-885l-133 12l-6 6l-10 -10h-17l-30 402v628l12 66v43l-12 12l14 37v14l-14 9l12 14z M279 1120l12 -41v-841l14 -13l180 13h133v104l-4 25l7 4v155l-15 29v676l4 61h-329l8 -123l-8 -16l10 -4v-10z" />
<glyph unicode="&#x153;" horiz-adv-x="1413" d="M63 1528h1237l43 -35v-217l-32 14h-393l-84 -4l-13 -12v-363l27 -14h205l133 14l4 -88l-8 -8l10 -145h-361l7 -27v-237l12 -3l-8 -20v-80l6 -88h510v-213l-80 4l-31 -6l-18 12l-80 -12h-885l-133 12l-6 6l-10 -10h-17l-30 402v628l12 66v43l-12 12l14 37v14l-14 9l12 14z M279 1120l12 -41v-841l14 -13l180 13h133v104l-4 25l7 4v155l-15 29v676l4 61h-329l8 -123l-8 -16l10 -4v-10z" />
<glyph unicode="&#x178;" horiz-adv-x="849" d="M51 1548h238l135 -461l127 443h240l-164 -379l-76 -242l-8 -75v-392l8 -36l-25 -19l6 -18v-328h-233v795l-12 82l-43 145zM137 1581v195h178l9 -31l16 -164h-203zM530 1573v211h181v-211l-37 10z" />
<glyph unicode="&#x2c6;" horiz-adv-x="645" d="M41 1612l65 209h406l92 -209h-215l-70 145l-67 -145h-211z" />
<glyph unicode="&#x2dc;" horiz-adv-x="727" d="M41 1618l27 219h305l129 -127l12 133h172l-20 -221h-314l-123 139l-28 -131z" />
<glyph unicode="&#x2000;" />
<glyph unicode="&#x2001;" horiz-adv-x="1843" />
<glyph unicode="&#x2002;" />
<glyph unicode="&#x2003;" horiz-adv-x="1843" />
<glyph unicode="&#x2004;" horiz-adv-x="614" />
<glyph unicode="&#x2005;" horiz-adv-x="460" />
<glyph unicode="&#x2006;" horiz-adv-x="307" />
<glyph unicode="&#x2007;" horiz-adv-x="307" />
<glyph unicode="&#x2008;" horiz-adv-x="230" />
<glyph unicode="&#x2009;" horiz-adv-x="368" />
<glyph unicode="&#x200a;" horiz-adv-x="102" />
<glyph unicode="&#x2010;" horiz-adv-x="909" d="M84 629v235h635l104 13v-236l-59 21h-90l-170 -21h-318l-65 -25l-23 13h-14z" />
<glyph unicode="&#x2011;" horiz-adv-x="909" d="M84 629v235h635l104 13v-236l-59 21h-90l-170 -21h-318l-65 -25l-23 13h-14z" />
<glyph unicode="&#x2012;" horiz-adv-x="909" d="M84 629v235h635l104 13v-236l-59 21h-90l-170 -21h-318l-65 -25l-23 13h-14z" />
<glyph unicode="&#x2013;" horiz-adv-x="1091" d="M84 629v235h840l104 13v-236l-59 21h-90l-170 -21h-523l-65 -25l-23 13h-14z" />
<glyph unicode="&#x2014;" horiz-adv-x="1323" d="M84 629v235h1044l105 13v-236l-59 21h-91l-170 -21h-727l-65 -25l-23 13h-14z" />
<glyph unicode="&#x2018;" horiz-adv-x="380" d="M41 1430l20 63l37 49l47 33h43l52 -27l45 -41l30 -47v-20l-53 -269l-168 -16l-51 219z" />
<glyph unicode="&#x2019;" horiz-adv-x="368" d="M49 1434v20l31 47l43 41l49 27h47l47 -31l37 -51l21 -64v-30l-2 -25l-52 -219l-168 16z" />
<glyph unicode="&#x201a;" horiz-adv-x="440" d="M90 246v20l31 47l43 41l49 27h47l47 -31l37 -51l21 -63v-31l-3 -25l-51 -219l-168 16z" />
<glyph unicode="&#x201c;" horiz-adv-x="694" d="M61 1436l21 63l37 49l47 33h43l51 -27l45 -41l31 -47v-20l-53 -268l-168 -17l-52 219zM348 1436l21 63l37 49l47 33h43l51 -27l45 -41l31 -47v-20l-54 -268l-168 -17l-51 219z" />
<glyph unicode="&#x201d;" horiz-adv-x="675" d="M49 1434v20l31 47l43 41l49 27h47l47 -31l37 -51l21 -64v-30l-2 -25l-52 -219l-168 16zM356 1434v20l31 47l43 41l49 27h47l47 -31l37 -51l21 -64v-30l-2 -25l-51 -219l-168 16z" />
<glyph unicode="&#x201e;" horiz-adv-x="880" d="M90 246v20l31 47l43 41l49 27h47l47 -31l37 -51l21 -63v-31l-3 -25l-51 -219l-168 16zM530 246v20l31 47l43 41l49 27h47l48 -31l36 -51l21 -63v-31l-2 -25l-51 -219l-168 16z" />
<glyph unicode="&#x2022;" horiz-adv-x="829" d="M123 719v94l156 188l106 56h96l103 -68l71 -100l43 -127v-174l-178 -135h-160l-186 151z" />
<glyph unicode="&#x2026;" horiz-adv-x="1554" d="M100 160v45l31 49l45 43l51 27h47l50 -33l34 -49l21 -62v-84l-86 -65h-78l-49 28l-41 45zM643 170v45l31 49l45 43l51 27h47l49 -33l35 -49l21 -62v-84l-86 -65h-78l-49 29l-41 45zM1145 180v45l31 49l45 43l51 27h47l49 -33l35 -49l20 -61v-84l-86 -66h-77l-50 29 l-41 45z" />
<glyph unicode="&#x202f;" horiz-adv-x="368" />
<glyph unicode="&#x2039;" horiz-adv-x="499" d="M92 748l262 299l35 -9l-10 -180l-107 -88l-16 -39l127 -100l12 -166l-35 -21l-108 142l-23 -2l2 24z" />
<glyph unicode="&#x203a;" horiz-adv-x="491" d="M90 868v162l45 8l111 -114l139 -185l-106 -114l-27 -45l-49 -37l-72 -84l-35 -2l10 174l136 98l-21 47z" />
<glyph unicode="&#x205f;" horiz-adv-x="460" />
<glyph unicode="&#x20ac;" horiz-adv-x="841" d="M39 823v193h115v145l-25 29l14 12v344h598l-36 -205h-359v-108l21 -217l69 6h209l-37 -199h-246v-88h230l-35 -194h-195v-92l-10 -11l17 -16l-13 -35v-35l13 -6l-7 -82l68 -10h262l94 -8v-199l-84 6h-444l-86 -4l-12 88l-17 201v172l-4 18l-63 -4l-29 11v200h86v88h-94z " />
<glyph unicode="&#x2122;" horiz-adv-x="1400" d="M53 1405v180h609v-180h-222v-879h-168v879h-219zM733 600v930l33 63l100 4l119 -262l23 -88l104 346h141l33 -467l-16 -600h-160v400l10 174l-63 -234l-31 -86l-22 6l-21 82l-92 258l10 -233v-231l-18 -146h-125z" />
<glyph unicode="&#x25fc;" horiz-adv-x="1556" d="M0 0v1556h1556v-1556h-1556z" />
</font>
</defs>
</svg>
